<mxfile host="app.diagrams.net" modified="2023-10-23T04:28:50.310Z" agent="Mozilla/5.0 (Windows NT 10.0; Win64; x64) AppleWebKit/537.36 (KHTML, like Gecko) Chrome/118.0.0.0 Safari/537.36 Edg/118.0.2088.61" etag="EgXLwnKaIVrKSnUgvUKw" version="22.0.6" type="google">
  <diagram name="Page-1" id="GdGxYZmirZRgzzBKeKEi">
    <mxGraphModel dx="1736" dy="983" grid="1" gridSize="10" guides="1" tooltips="1" connect="1" arrows="1" fold="1" page="1" pageScale="1" pageWidth="850" pageHeight="1100" math="0" shadow="0">
      <root>
        <mxCell id="0" />
        <mxCell id="1" parent="0" />
        <mxCell id="QVHacSZLvYC3Rlmj2cZm-10" style="rounded=0;orthogonalLoop=1;jettySize=auto;html=1;entryX=0;entryY=0.5;entryDx=0;entryDy=0;" parent="1" source="QVHacSZLvYC3Rlmj2cZm-2" target="QVHacSZLvYC3Rlmj2cZm-7" edge="1">
          <mxGeometry relative="1" as="geometry" />
        </mxCell>
        <mxCell id="QVHacSZLvYC3Rlmj2cZm-13" style="rounded=0;orthogonalLoop=1;jettySize=auto;html=1;entryX=0;entryY=0.5;entryDx=0;entryDy=0;" parent="1" source="QVHacSZLvYC3Rlmj2cZm-2" target="QVHacSZLvYC3Rlmj2cZm-12" edge="1">
          <mxGeometry relative="1" as="geometry" />
        </mxCell>
        <mxCell id="QVHacSZLvYC3Rlmj2cZm-80" style="rounded=0;orthogonalLoop=1;jettySize=auto;html=1;entryX=0.5;entryY=0;entryDx=0;entryDy=0;" parent="1" source="QVHacSZLvYC3Rlmj2cZm-2" target="QVHacSZLvYC3Rlmj2cZm-23" edge="1">
          <mxGeometry relative="1" as="geometry">
            <Array as="points">
              <mxPoint x="200" y="180" />
              <mxPoint x="430" y="180" />
            </Array>
          </mxGeometry>
        </mxCell>
        <mxCell id="QVHacSZLvYC3Rlmj2cZm-2" value="Administrator" style="shape=umlActor;verticalLabelPosition=bottom;verticalAlign=top;html=1;" parent="1" vertex="1">
          <mxGeometry x="70" y="210" width="30" height="60" as="geometry" />
        </mxCell>
        <mxCell id="QVHacSZLvYC3Rlmj2cZm-3" value="Use Case Diagram" style="shape=umlFrame;whiteSpace=wrap;html=1;pointerEvents=0;width=130;height=30;" parent="1" vertex="1">
          <mxGeometry x="20" y="70" width="680" height="340" as="geometry" />
        </mxCell>
        <mxCell id="QVHacSZLvYC3Rlmj2cZm-6" value="System Boundary" style="swimlane;whiteSpace=wrap;html=1;" parent="1" vertex="1">
          <mxGeometry x="170" y="110" width="410" height="280" as="geometry" />
        </mxCell>
        <mxCell id="QVHacSZLvYC3Rlmj2cZm-26" style="edgeStyle=orthogonalEdgeStyle;rounded=0;orthogonalLoop=1;jettySize=auto;html=1;entryX=0;entryY=0.5;entryDx=0;entryDy=0;" parent="QVHacSZLvYC3Rlmj2cZm-6" source="QVHacSZLvYC3Rlmj2cZm-7" target="QVHacSZLvYC3Rlmj2cZm-23" edge="1">
          <mxGeometry relative="1" as="geometry" />
        </mxCell>
        <mxCell id="QVHacSZLvYC3Rlmj2cZm-7" value="Add Sensor" style="ellipse;whiteSpace=wrap;html=1;" parent="QVHacSZLvYC3Rlmj2cZm-6" vertex="1">
          <mxGeometry x="30" y="95" width="140" height="70" as="geometry" />
        </mxCell>
        <mxCell id="QVHacSZLvYC3Rlmj2cZm-27" style="edgeStyle=orthogonalEdgeStyle;rounded=0;orthogonalLoop=1;jettySize=auto;html=1;entryX=0;entryY=0.5;entryDx=0;entryDy=0;" parent="QVHacSZLvYC3Rlmj2cZm-6" source="QVHacSZLvYC3Rlmj2cZm-12" target="QVHacSZLvYC3Rlmj2cZm-23" edge="1">
          <mxGeometry relative="1" as="geometry">
            <mxPoint x="210" y="90" as="targetPoint" />
          </mxGeometry>
        </mxCell>
        <mxCell id="QVHacSZLvYC3Rlmj2cZm-28" value="Add to Registry" style="edgeLabel;html=1;align=center;verticalAlign=middle;resizable=0;points=[];" parent="QVHacSZLvYC3Rlmj2cZm-27" connectable="0" vertex="1">
          <mxGeometry x="-0.1177" y="-1" relative="1" as="geometry">
            <mxPoint x="41" y="17" as="offset" />
          </mxGeometry>
        </mxCell>
        <mxCell id="QVHacSZLvYC3Rlmj2cZm-12" value="Add Location" style="ellipse;whiteSpace=wrap;html=1;" parent="QVHacSZLvYC3Rlmj2cZm-6" vertex="1">
          <mxGeometry x="30" y="180" width="140" height="70" as="geometry" />
        </mxCell>
        <mxCell id="QVHacSZLvYC3Rlmj2cZm-23" value="Access Registry" style="ellipse;whiteSpace=wrap;html=1;" parent="QVHacSZLvYC3Rlmj2cZm-6" vertex="1">
          <mxGeometry x="255" y="130" width="140" height="70" as="geometry" />
        </mxCell>
        <mxCell id="QVHacSZLvYC3Rlmj2cZm-18" value="End-User" style="shape=umlActor;verticalLabelPosition=bottom;verticalAlign=top;html=1;" parent="1" vertex="1">
          <mxGeometry x="610" y="245" width="30" height="60" as="geometry" />
        </mxCell>
        <mxCell id="QVHacSZLvYC3Rlmj2cZm-24" style="rounded=0;orthogonalLoop=1;jettySize=auto;html=1;endArrow=none;endFill=0;" parent="1" source="QVHacSZLvYC3Rlmj2cZm-23" target="QVHacSZLvYC3Rlmj2cZm-18" edge="1">
          <mxGeometry relative="1" as="geometry" />
        </mxCell>
      </root>
    </mxGraphModel>
  </diagram>
</mxfile>
